G04 EAGLE Gerber RS-274X export*
G75*
%MOMM*%
%FSLAX34Y34*%
%LPD*%
%INSoldermask Bottom*%
%IPPOS*%
%AMOC8*
5,1,8,0,0,1.08239X$1,22.5*%
G01*
%ADD10C,2.082800*%
%ADD11C,3.251200*%
%ADD12C,0.838200*%
%ADD13R,1.473200X0.838200*%
%ADD14C,1.203200*%


D10*
X63500Y241300D03*
X88900Y241300D03*
X114300Y241300D03*
X139700Y241300D03*
X165100Y241300D03*
X190500Y241300D03*
D11*
X25400Y228600D03*
X228600Y228600D03*
D12*
X12700Y12700D03*
D13*
X114300Y164846D03*
X114300Y172974D03*
D10*
X88900Y12700D03*
X114300Y12700D03*
X139700Y12700D03*
X165100Y12700D03*
D12*
X241300Y203200D03*
D10*
X322580Y241300D03*
X347980Y241300D03*
X373380Y241300D03*
X398780Y241300D03*
X424180Y241300D03*
X449580Y241300D03*
D11*
X284480Y228600D03*
X487680Y228600D03*
D12*
X271780Y12700D03*
D13*
X373380Y164846D03*
X373380Y172974D03*
D10*
X347980Y12700D03*
X373380Y12700D03*
X398780Y12700D03*
X424180Y12700D03*
D12*
X500380Y203200D03*
D10*
X581660Y241300D03*
X607060Y241300D03*
X632460Y241300D03*
X657860Y241300D03*
X683260Y241300D03*
X708660Y241300D03*
D11*
X543560Y228600D03*
X746760Y228600D03*
D12*
X530860Y12700D03*
D13*
X632460Y164846D03*
X632460Y172974D03*
D10*
X607060Y12700D03*
X632460Y12700D03*
X657860Y12700D03*
X683260Y12700D03*
D12*
X759460Y203200D03*
D10*
X840740Y241300D03*
X866140Y241300D03*
X891540Y241300D03*
X916940Y241300D03*
X942340Y241300D03*
X967740Y241300D03*
D11*
X802640Y228600D03*
X1005840Y228600D03*
D12*
X789940Y12700D03*
D13*
X891540Y164846D03*
X891540Y172974D03*
D10*
X866140Y12700D03*
X891540Y12700D03*
X916940Y12700D03*
X942340Y12700D03*
D12*
X1018540Y203200D03*
D10*
X1099820Y241300D03*
X1125220Y241300D03*
X1150620Y241300D03*
X1176020Y241300D03*
X1201420Y241300D03*
X1226820Y241300D03*
D11*
X1061720Y228600D03*
X1264920Y228600D03*
D12*
X1049020Y12700D03*
D13*
X1150620Y164846D03*
X1150620Y172974D03*
D10*
X1125220Y12700D03*
X1150620Y12700D03*
X1176020Y12700D03*
X1201420Y12700D03*
D12*
X1277620Y203200D03*
D10*
X63500Y500380D03*
X88900Y500380D03*
X114300Y500380D03*
X139700Y500380D03*
X165100Y500380D03*
X190500Y500380D03*
D11*
X25400Y487680D03*
X228600Y487680D03*
D12*
X12700Y271780D03*
D13*
X114300Y423926D03*
X114300Y432054D03*
D10*
X88900Y271780D03*
X114300Y271780D03*
X139700Y271780D03*
X165100Y271780D03*
D12*
X241300Y462280D03*
D10*
X322580Y500380D03*
X347980Y500380D03*
X373380Y500380D03*
X398780Y500380D03*
X424180Y500380D03*
X449580Y500380D03*
D11*
X284480Y487680D03*
X487680Y487680D03*
D12*
X271780Y271780D03*
D13*
X373380Y423926D03*
X373380Y432054D03*
D10*
X347980Y271780D03*
X373380Y271780D03*
X398780Y271780D03*
X424180Y271780D03*
D12*
X500380Y462280D03*
D10*
X581660Y500380D03*
X607060Y500380D03*
X632460Y500380D03*
X657860Y500380D03*
X683260Y500380D03*
X708660Y500380D03*
D11*
X543560Y487680D03*
X746760Y487680D03*
D12*
X530860Y271780D03*
D13*
X632460Y423926D03*
X632460Y432054D03*
D10*
X607060Y271780D03*
X632460Y271780D03*
X657860Y271780D03*
X683260Y271780D03*
D12*
X759460Y462280D03*
D10*
X840740Y500380D03*
X866140Y500380D03*
X891540Y500380D03*
X916940Y500380D03*
X942340Y500380D03*
X967740Y500380D03*
D11*
X802640Y487680D03*
X1005840Y487680D03*
D12*
X789940Y271780D03*
D13*
X891540Y423926D03*
X891540Y432054D03*
D10*
X866140Y271780D03*
X891540Y271780D03*
X916940Y271780D03*
X942340Y271780D03*
D12*
X1018540Y462280D03*
D10*
X1099820Y500380D03*
X1125220Y500380D03*
X1150620Y500380D03*
X1176020Y500380D03*
X1201420Y500380D03*
X1226820Y500380D03*
D11*
X1061720Y487680D03*
X1264920Y487680D03*
D12*
X1049020Y271780D03*
D13*
X1150620Y423926D03*
X1150620Y432054D03*
D10*
X1125220Y271780D03*
X1150620Y271780D03*
X1176020Y271780D03*
X1201420Y271780D03*
D12*
X1277620Y462280D03*
D10*
X63500Y759460D03*
X88900Y759460D03*
X114300Y759460D03*
X139700Y759460D03*
X165100Y759460D03*
X190500Y759460D03*
D11*
X25400Y746760D03*
X228600Y746760D03*
D12*
X12700Y530860D03*
D13*
X114300Y683006D03*
X114300Y691134D03*
D10*
X88900Y530860D03*
X114300Y530860D03*
X139700Y530860D03*
X165100Y530860D03*
D12*
X241300Y721360D03*
D10*
X322580Y759460D03*
X347980Y759460D03*
X373380Y759460D03*
X398780Y759460D03*
X424180Y759460D03*
X449580Y759460D03*
D11*
X284480Y746760D03*
X487680Y746760D03*
D12*
X271780Y530860D03*
D13*
X373380Y683006D03*
X373380Y691134D03*
D10*
X347980Y530860D03*
X373380Y530860D03*
X398780Y530860D03*
X424180Y530860D03*
D12*
X500380Y721360D03*
D10*
X581660Y759460D03*
X607060Y759460D03*
X632460Y759460D03*
X657860Y759460D03*
X683260Y759460D03*
X708660Y759460D03*
D11*
X543560Y746760D03*
X746760Y746760D03*
D12*
X530860Y530860D03*
D13*
X632460Y683006D03*
X632460Y691134D03*
D10*
X607060Y530860D03*
X632460Y530860D03*
X657860Y530860D03*
X683260Y530860D03*
D12*
X759460Y721360D03*
D10*
X840740Y759460D03*
X866140Y759460D03*
X891540Y759460D03*
X916940Y759460D03*
X942340Y759460D03*
X967740Y759460D03*
D11*
X802640Y746760D03*
X1005840Y746760D03*
D12*
X789940Y530860D03*
D13*
X891540Y683006D03*
X891540Y691134D03*
D10*
X866140Y530860D03*
X891540Y530860D03*
X916940Y530860D03*
X942340Y530860D03*
D12*
X1018540Y721360D03*
D10*
X1099820Y759460D03*
X1125220Y759460D03*
X1150620Y759460D03*
X1176020Y759460D03*
X1201420Y759460D03*
X1226820Y759460D03*
D11*
X1061720Y746760D03*
X1264920Y746760D03*
D12*
X1049020Y530860D03*
D13*
X1150620Y683006D03*
X1150620Y691134D03*
D10*
X1125220Y530860D03*
X1150620Y530860D03*
X1176020Y530860D03*
X1201420Y530860D03*
D12*
X1277620Y721360D03*
D10*
X63500Y1018540D03*
X88900Y1018540D03*
X114300Y1018540D03*
X139700Y1018540D03*
X165100Y1018540D03*
X190500Y1018540D03*
D11*
X25400Y1005840D03*
X228600Y1005840D03*
D12*
X12700Y789940D03*
D13*
X114300Y942086D03*
X114300Y950214D03*
D10*
X88900Y789940D03*
X114300Y789940D03*
X139700Y789940D03*
X165100Y789940D03*
D12*
X241300Y980440D03*
D10*
X322580Y1018540D03*
X347980Y1018540D03*
X373380Y1018540D03*
X398780Y1018540D03*
X424180Y1018540D03*
X449580Y1018540D03*
D11*
X284480Y1005840D03*
X487680Y1005840D03*
D12*
X271780Y789940D03*
D13*
X373380Y942086D03*
X373380Y950214D03*
D10*
X347980Y789940D03*
X373380Y789940D03*
X398780Y789940D03*
X424180Y789940D03*
D12*
X500380Y980440D03*
D10*
X581660Y1018540D03*
X607060Y1018540D03*
X632460Y1018540D03*
X657860Y1018540D03*
X683260Y1018540D03*
X708660Y1018540D03*
D11*
X543560Y1005840D03*
X746760Y1005840D03*
D12*
X530860Y789940D03*
D13*
X632460Y942086D03*
X632460Y950214D03*
D10*
X607060Y789940D03*
X632460Y789940D03*
X657860Y789940D03*
X683260Y789940D03*
D12*
X759460Y980440D03*
D10*
X840740Y1018540D03*
X866140Y1018540D03*
X891540Y1018540D03*
X916940Y1018540D03*
X942340Y1018540D03*
X967740Y1018540D03*
D11*
X802640Y1005840D03*
X1005840Y1005840D03*
D12*
X789940Y789940D03*
D13*
X891540Y942086D03*
X891540Y950214D03*
D10*
X866140Y789940D03*
X891540Y789940D03*
X916940Y789940D03*
X942340Y789940D03*
D12*
X1018540Y980440D03*
D10*
X1099820Y1018540D03*
X1125220Y1018540D03*
X1150620Y1018540D03*
X1176020Y1018540D03*
X1201420Y1018540D03*
X1226820Y1018540D03*
D11*
X1061720Y1005840D03*
X1264920Y1005840D03*
D12*
X1049020Y789940D03*
D13*
X1150620Y942086D03*
X1150620Y950214D03*
D10*
X1125220Y789940D03*
X1150620Y789940D03*
X1176020Y789940D03*
X1201420Y789940D03*
D12*
X1277620Y980440D03*
D10*
X63500Y1277620D03*
X88900Y1277620D03*
X114300Y1277620D03*
X139700Y1277620D03*
X165100Y1277620D03*
X190500Y1277620D03*
D11*
X25400Y1264920D03*
X228600Y1264920D03*
D12*
X12700Y1049020D03*
D13*
X114300Y1201166D03*
X114300Y1209294D03*
D10*
X88900Y1049020D03*
X114300Y1049020D03*
X139700Y1049020D03*
X165100Y1049020D03*
D12*
X241300Y1239520D03*
D10*
X322580Y1277620D03*
X347980Y1277620D03*
X373380Y1277620D03*
X398780Y1277620D03*
X424180Y1277620D03*
X449580Y1277620D03*
D11*
X284480Y1264920D03*
X487680Y1264920D03*
D12*
X271780Y1049020D03*
D13*
X373380Y1201166D03*
X373380Y1209294D03*
D10*
X347980Y1049020D03*
X373380Y1049020D03*
X398780Y1049020D03*
X424180Y1049020D03*
D12*
X500380Y1239520D03*
D10*
X581660Y1277620D03*
X607060Y1277620D03*
X632460Y1277620D03*
X657860Y1277620D03*
X683260Y1277620D03*
X708660Y1277620D03*
D11*
X543560Y1264920D03*
X746760Y1264920D03*
D12*
X530860Y1049020D03*
D13*
X632460Y1201166D03*
X632460Y1209294D03*
D10*
X607060Y1049020D03*
X632460Y1049020D03*
X657860Y1049020D03*
X683260Y1049020D03*
D12*
X759460Y1239520D03*
D10*
X840740Y1277620D03*
X866140Y1277620D03*
X891540Y1277620D03*
X916940Y1277620D03*
X942340Y1277620D03*
X967740Y1277620D03*
D11*
X802640Y1264920D03*
X1005840Y1264920D03*
D12*
X789940Y1049020D03*
D13*
X891540Y1201166D03*
X891540Y1209294D03*
D10*
X866140Y1049020D03*
X891540Y1049020D03*
X916940Y1049020D03*
X942340Y1049020D03*
D12*
X1018540Y1239520D03*
D10*
X1099820Y1277620D03*
X1125220Y1277620D03*
X1150620Y1277620D03*
X1176020Y1277620D03*
X1201420Y1277620D03*
X1226820Y1277620D03*
D11*
X1061720Y1264920D03*
X1264920Y1264920D03*
D12*
X1049020Y1049020D03*
D13*
X1150620Y1201166D03*
X1150620Y1209294D03*
D10*
X1125220Y1049020D03*
X1150620Y1049020D03*
X1176020Y1049020D03*
X1201420Y1049020D03*
D12*
X1277620Y1239520D03*
D10*
X63500Y1536700D03*
X88900Y1536700D03*
X114300Y1536700D03*
X139700Y1536700D03*
X165100Y1536700D03*
X190500Y1536700D03*
D11*
X25400Y1524000D03*
X228600Y1524000D03*
D12*
X12700Y1308100D03*
D13*
X114300Y1460246D03*
X114300Y1468374D03*
D10*
X88900Y1308100D03*
X114300Y1308100D03*
X139700Y1308100D03*
X165100Y1308100D03*
D12*
X241300Y1498600D03*
D10*
X322580Y1536700D03*
X347980Y1536700D03*
X373380Y1536700D03*
X398780Y1536700D03*
X424180Y1536700D03*
X449580Y1536700D03*
D11*
X284480Y1524000D03*
X487680Y1524000D03*
D12*
X271780Y1308100D03*
D13*
X373380Y1460246D03*
X373380Y1468374D03*
D10*
X347980Y1308100D03*
X373380Y1308100D03*
X398780Y1308100D03*
X424180Y1308100D03*
D12*
X500380Y1498600D03*
D10*
X581660Y1536700D03*
X607060Y1536700D03*
X632460Y1536700D03*
X657860Y1536700D03*
X683260Y1536700D03*
X708660Y1536700D03*
D11*
X543560Y1524000D03*
X746760Y1524000D03*
D12*
X530860Y1308100D03*
D13*
X632460Y1460246D03*
X632460Y1468374D03*
D10*
X607060Y1308100D03*
X632460Y1308100D03*
X657860Y1308100D03*
X683260Y1308100D03*
D12*
X759460Y1498600D03*
D10*
X840740Y1536700D03*
X866140Y1536700D03*
X891540Y1536700D03*
X916940Y1536700D03*
X942340Y1536700D03*
X967740Y1536700D03*
D11*
X802640Y1524000D03*
X1005840Y1524000D03*
D12*
X789940Y1308100D03*
D13*
X891540Y1460246D03*
X891540Y1468374D03*
D10*
X866140Y1308100D03*
X891540Y1308100D03*
X916940Y1308100D03*
X942340Y1308100D03*
D12*
X1018540Y1498600D03*
D10*
X1099820Y1536700D03*
X1125220Y1536700D03*
X1150620Y1536700D03*
X1176020Y1536700D03*
X1201420Y1536700D03*
X1226820Y1536700D03*
D11*
X1061720Y1524000D03*
X1264920Y1524000D03*
D12*
X1049020Y1308100D03*
D13*
X1150620Y1460246D03*
X1150620Y1468374D03*
D10*
X1125220Y1308100D03*
X1150620Y1308100D03*
X1176020Y1308100D03*
X1201420Y1308100D03*
D12*
X1277620Y1498600D03*
D10*
X63500Y1795780D03*
X88900Y1795780D03*
X114300Y1795780D03*
X139700Y1795780D03*
X165100Y1795780D03*
X190500Y1795780D03*
D11*
X25400Y1783080D03*
X228600Y1783080D03*
D12*
X12700Y1567180D03*
D13*
X114300Y1719326D03*
X114300Y1727454D03*
D10*
X88900Y1567180D03*
X114300Y1567180D03*
X139700Y1567180D03*
X165100Y1567180D03*
D12*
X241300Y1757680D03*
D10*
X322580Y1795780D03*
X347980Y1795780D03*
X373380Y1795780D03*
X398780Y1795780D03*
X424180Y1795780D03*
X449580Y1795780D03*
D11*
X284480Y1783080D03*
X487680Y1783080D03*
D12*
X271780Y1567180D03*
D13*
X373380Y1719326D03*
X373380Y1727454D03*
D10*
X347980Y1567180D03*
X373380Y1567180D03*
X398780Y1567180D03*
X424180Y1567180D03*
D12*
X500380Y1757680D03*
D10*
X581660Y1795780D03*
X607060Y1795780D03*
X632460Y1795780D03*
X657860Y1795780D03*
X683260Y1795780D03*
X708660Y1795780D03*
D11*
X543560Y1783080D03*
X746760Y1783080D03*
D12*
X530860Y1567180D03*
D13*
X632460Y1719326D03*
X632460Y1727454D03*
D10*
X607060Y1567180D03*
X632460Y1567180D03*
X657860Y1567180D03*
X683260Y1567180D03*
D12*
X759460Y1757680D03*
D10*
X840740Y1795780D03*
X866140Y1795780D03*
X891540Y1795780D03*
X916940Y1795780D03*
X942340Y1795780D03*
X967740Y1795780D03*
D11*
X802640Y1783080D03*
X1005840Y1783080D03*
D12*
X789940Y1567180D03*
D13*
X891540Y1719326D03*
X891540Y1727454D03*
D10*
X866140Y1567180D03*
X891540Y1567180D03*
X916940Y1567180D03*
X942340Y1567180D03*
D12*
X1018540Y1757680D03*
D10*
X1099820Y1795780D03*
X1125220Y1795780D03*
X1150620Y1795780D03*
X1176020Y1795780D03*
X1201420Y1795780D03*
X1226820Y1795780D03*
D11*
X1061720Y1783080D03*
X1264920Y1783080D03*
D12*
X1049020Y1567180D03*
D13*
X1150620Y1719326D03*
X1150620Y1727454D03*
D10*
X1125220Y1567180D03*
X1150620Y1567180D03*
X1176020Y1567180D03*
X1201420Y1567180D03*
D12*
X1277620Y1757680D03*
D14*
X68580Y1829435D03*
X1221105Y1829435D03*
M02*
