M48
;GenerationSoftware,Autodesk,EAGLE,9.6.0*%
;CreationDate,2020-03-31T21:11:50Z*%
FMAT,2
ICI,OFF
METRIC,TZ,000.000
T3C0.381
T2C1.016
T1C3.048
%
G90
M71
T1
X28448Y48768
X126492Y178308
X2540Y22860
X22860Y22860
X28448Y22860
X48768Y22860
X54356Y22860
X74676Y22860
X80264Y22860
X100584Y22860
X106172Y22860
X126492Y22860
X2540Y48768
X22860Y48768
X48768Y48768
X54356Y48768
X74676Y48768
X80264Y48768
X100584Y48768
X106172Y48768
X126492Y48768
X2540Y74676
X22860Y74676
X28448Y74676
X48768Y74676
X54356Y74676
X74676Y74676
X80264Y74676
X100584Y74676
X106172Y74676
X126492Y74676
X2540Y100584
X22860Y100584
X28448Y100584
X48768Y100584
X54356Y100584
X74676Y100584
X80264Y100584
X100584Y100584
X106172Y100584
X126492Y100584
X2540Y126492
X22860Y126492
X28448Y126492
X48768Y126492
X54356Y126492
X74676Y126492
X80264Y126492
X100584Y126492
X106172Y126492
X126492Y126492
X2540Y152400
X22860Y152400
X28448Y152400
X48768Y152400
X54356Y152400
X74676Y152400
X80264Y152400
X100584Y152400
X106172Y152400
X126492Y152400
X2540Y178308
X22860Y178308
X28448Y178308
X48768Y178308
X54356Y178308
X74676Y178308
X80264Y178308
X100584Y178308
X106172Y178308
T2
X42418Y127762
X6350Y24130
X8890Y24130
X11430Y24130
X13970Y24130
X16510Y24130
X19050Y24130
X8890Y1270
X11430Y1270
X13970Y1270
X16510Y1270
X32258Y24130
X34798Y24130
X37338Y24130
X39878Y24130
X42418Y24130
X44958Y24130
X34798Y1270
X37338Y1270
X39878Y1270
X42418Y1270
X58166Y24130
X60706Y24130
X63246Y24130
X65786Y24130
X68326Y24130
X70866Y24130
X60706Y1270
X63246Y1270
X65786Y1270
X68326Y1270
X84074Y24130
X86614Y24130
X89154Y24130
X91694Y24130
X94234Y24130
X96774Y24130
X86614Y1270
X89154Y1270
X91694Y1270
X94234Y1270
X109982Y24130
X112522Y24130
X115062Y24130
X117602Y24130
X120142Y24130
X122682Y24130
X112522Y1270
X115062Y1270
X117602Y1270
X120142Y1270
X6350Y50038
X8890Y50038
X11430Y50038
X13970Y50038
X16510Y50038
X19050Y50038
X8890Y27178
X11430Y27178
X13970Y27178
X16510Y27178
X32258Y50038
X34798Y50038
X37338Y50038
X39878Y50038
X42418Y50038
X44958Y50038
X34798Y27178
X37338Y27178
X39878Y27178
X42418Y27178
X58166Y50038
X60706Y50038
X63246Y50038
X65786Y50038
X68326Y50038
X70866Y50038
X60706Y27178
X63246Y27178
X65786Y27178
X68326Y27178
X84074Y50038
X86614Y50038
X89154Y50038
X91694Y50038
X94234Y50038
X96774Y50038
X86614Y27178
X89154Y27178
X91694Y27178
X94234Y27178
X109982Y50038
X112522Y50038
X115062Y50038
X117602Y50038
X120142Y50038
X122682Y50038
X112522Y27178
X115062Y27178
X117602Y27178
X120142Y27178
X6350Y75946
X8890Y75946
X11430Y75946
X13970Y75946
X16510Y75946
X19050Y75946
X8890Y53086
X11430Y53086
X13970Y53086
X16510Y53086
X32258Y75946
X34798Y75946
X37338Y75946
X39878Y75946
X42418Y75946
X44958Y75946
X34798Y53086
X37338Y53086
X39878Y53086
X42418Y53086
X58166Y75946
X60706Y75946
X63246Y75946
X65786Y75946
X68326Y75946
X70866Y75946
X60706Y53086
X63246Y53086
X65786Y53086
X68326Y53086
X84074Y75946
X86614Y75946
X89154Y75946
X91694Y75946
X94234Y75946
X96774Y75946
X86614Y53086
X89154Y53086
X91694Y53086
X94234Y53086
X109982Y75946
X112522Y75946
X115062Y75946
X117602Y75946
X120142Y75946
X122682Y75946
X112522Y53086
X115062Y53086
X117602Y53086
X120142Y53086
X6350Y101854
X8890Y101854
X11430Y101854
X13970Y101854
X16510Y101854
X19050Y101854
X8890Y78994
X11430Y78994
X13970Y78994
X16510Y78994
X32258Y101854
X34798Y101854
X37338Y101854
X39878Y101854
X42418Y101854
X44958Y101854
X34798Y78994
X37338Y78994
X39878Y78994
X42418Y78994
X58166Y101854
X60706Y101854
X63246Y101854
X65786Y101854
X68326Y101854
X70866Y101854
X60706Y78994
X63246Y78994
X65786Y78994
X68326Y78994
X84074Y101854
X86614Y101854
X89154Y101854
X91694Y101854
X94234Y101854
X96774Y101854
X86614Y78994
X89154Y78994
X91694Y78994
X94234Y78994
X109982Y101854
X112522Y101854
X115062Y101854
X117602Y101854
X120142Y101854
X122682Y101854
X112522Y78994
X115062Y78994
X117602Y78994
X120142Y78994
X6350Y127762
X8890Y127762
X11430Y127762
X13970Y127762
X16510Y127762
X19050Y127762
X8890Y104902
X11430Y104902
X13970Y104902
X16510Y104902
X32258Y127762
X34798Y127762
X37338Y127762
X39878Y127762
X44958Y127762
X34798Y104902
X37338Y104902
X39878Y104902
X42418Y104902
X58166Y127762
X60706Y127762
X63246Y127762
X65786Y127762
X68326Y127762
X70866Y127762
X60706Y104902
X63246Y104902
X65786Y104902
X68326Y104902
X84074Y127762
X86614Y127762
X89154Y127762
X91694Y127762
X94234Y127762
X96774Y127762
X86614Y104902
X89154Y104902
X91694Y104902
X94234Y104902
X109982Y127762
X112522Y127762
X115062Y127762
X117602Y127762
X120142Y127762
X122682Y127762
X112522Y104902
X115062Y104902
X117602Y104902
X120142Y104902
X6350Y153670
X8890Y153670
X11430Y153670
X13970Y153670
X16510Y153670
X19050Y153670
X8890Y130810
X11430Y130810
X13970Y130810
X16510Y130810
X32258Y153670
X34798Y153670
X37338Y153670
X39878Y153670
X42418Y153670
X44958Y153670
X34798Y130810
X37338Y130810
X39878Y130810
X42418Y130810
X58166Y153670
X60706Y153670
X63246Y153670
X65786Y153670
X68326Y153670
X70866Y153670
X60706Y130810
X63246Y130810
X65786Y130810
X68326Y130810
X84074Y153670
X86614Y153670
X89154Y153670
X91694Y153670
X94234Y153670
X96774Y153670
X86614Y130810
X89154Y130810
X91694Y130810
X94234Y130810
X109982Y153670
X112522Y153670
X115062Y153670
X117602Y153670
X120142Y153670
X122682Y153670
X112522Y130810
X115062Y130810
X117602Y130810
X120142Y130810
X6350Y179578
X8890Y179578
X11430Y179578
X13970Y179578
X16510Y179578
X19050Y179578
X8890Y156718
X11430Y156718
X13970Y156718
X16510Y156718
X32258Y179578
X34798Y179578
X37338Y179578
X39878Y179578
X42418Y179578
X44958Y179578
X34798Y156718
X37338Y156718
X39878Y156718
X42418Y156718
X58166Y179578
X60706Y179578
X63246Y179578
X65786Y179578
X68326Y179578
X70866Y179578
X60706Y156718
X63246Y156718
X65786Y156718
X68326Y156718
X84074Y179578
X86614Y179578
X89154Y179578
X91694Y179578
X94234Y179578
X96774Y179578
X86614Y156718
X89154Y156718
X91694Y156718
X94234Y156718
X109982Y179578
X112522Y179578
X115062Y179578
X117602Y179578
X120142Y179578
X122682Y179578
X112522Y156718
X115062Y156718
X117602Y156718
X120142Y156718
T3
X68326Y122682
X64516Y112522
X69596Y106172
X67056Y116840
X56896Y120142
X67056Y115062
X70866Y113792
X66548Y118872
X60706Y112522
X67056Y109982
X65786Y121412
X59436Y122682
X69596Y118237
X56896Y111252
X54356Y116332
X63246Y114173
X70866Y109982
X85344Y116840
X88392Y118364
X94234Y122682
X90424Y112522
X95504Y106172
X92964Y116840
X82804Y120142
X92964Y115062
X96774Y113792
X92456Y118872
X86614Y112522
X92964Y109982
X91694Y121412
X85344Y122682
X95504Y118237
X82804Y111252
X80264Y116332
X89154Y114173
X96774Y109982
X111252Y116840
X114300Y118364
X120142Y122682
X116332Y112522
X121412Y106172
X118872Y116840
X108712Y120142
X118872Y115062
X122682Y113792
X118364Y118872
X112522Y112522
X118872Y109982
X117602Y121412
X111252Y122682
X121412Y118237
X108712Y111252
X106172Y116332
X115062Y114173
X122682Y109982
X7620Y142748
X10668Y144272
X16510Y148590
X12700Y138430
X17780Y132080
X15240Y142748
X5080Y146050
X15240Y140970
X19050Y139700
X14732Y144780
X8890Y138430
X15240Y135890
X13970Y147320
X7620Y148590
X17780Y144145
X5080Y137160
X2540Y142240
X11430Y140081
X19050Y135890
X33528Y142748
X36576Y144272
X42418Y148590
X38608Y138430
X43688Y132080
X41148Y142748
X30988Y146050
X41148Y140970
X44958Y139700
X40640Y144780
X34798Y138430
X41148Y135890
X39878Y147320
X33528Y148590
X43688Y144145
X30988Y137160
X28448Y142240
X37338Y140081
X44958Y135890
X59436Y142748
X62484Y144272
X68326Y148590
X64516Y138430
X69596Y132080
X67056Y142748
X56896Y146050
X67056Y140970
X70866Y139700
X66548Y144780
X60706Y138430
X67056Y135890
X65786Y147320
X59436Y148590
X69596Y144145
X56896Y137160
X54356Y142240
X63246Y140081
X70866Y135890
X85344Y142748
X88392Y144272
X94234Y148590
X90424Y138430
X95504Y132080
X92964Y142748
X82804Y146050
X92964Y140970
X96774Y139700
X92456Y144780
X68326Y44958
X92964Y135890
X91694Y147320
X85344Y148590
X95504Y144145
X82804Y137160
X80264Y142240
X89154Y140081
X96774Y135890
X111252Y142748
X114300Y144272
X120142Y148590
X116332Y138430
X121412Y132080
X118872Y142748
X108712Y146050
X118872Y140970
X122682Y139700
X118364Y144780
X112522Y138430
X118872Y135890
X117602Y147320
X111252Y148590
X121412Y144145
X108712Y137160
X106172Y142240
X115062Y140081
X122682Y135890
X7620Y168656
X10668Y170180
X16510Y174498
X12700Y164338
X17780Y157988
X15240Y168656
X5080Y171958
X15240Y166878
X19050Y165608
X14732Y170688
X8890Y164338
X15240Y161798
X13970Y173228
X7620Y174498
X17780Y170053
X5080Y163068
X2540Y168148
X11430Y165989
X19050Y161798
X33528Y168656
X36576Y170180
X42418Y174498
X38608Y164338
X43688Y157988
X41148Y168656
X30988Y171958
X41148Y166878
X44958Y165608
X40640Y170688
X34798Y164338
X41148Y161798
X39878Y173228
X33528Y174498
X43688Y170053
X30988Y163068
X28448Y168148
X37338Y165989
X44958Y161798
X59436Y168656
X62484Y170180
X68326Y174498
X64516Y164338
X69596Y157988
X67056Y168656
X56896Y171958
X67056Y166878
X70866Y165608
X66548Y170688
X60706Y164338
X67056Y161798
X65786Y173228
X59436Y174498
X69596Y170053
X56896Y163068
X54356Y168148
X63246Y165989
X70866Y161798
X85344Y168656
X88392Y170180
X94234Y174498
X90424Y164338
X95504Y157988
X92964Y168656
X82804Y171958
X92964Y166878
X96774Y165608
X92456Y170688
X86614Y164338
X92964Y161798
X91694Y173228
X85344Y174498
X95504Y170053
X82804Y163068
X80264Y168148
X89154Y165989
X96774Y161798
X111252Y168656
X114300Y170180
X120142Y174498
X116332Y164338
X121412Y157988
X118872Y168656
X108712Y171958
X118872Y166878
X122682Y165608
X118364Y170688
X112522Y164338
X118872Y161798
X117602Y173228
X111252Y174498
X121412Y170053
X108712Y163068
X106172Y168148
X115062Y165989
X122682Y161798
X7620Y13208
X10668Y14732
X16510Y19050
X12700Y8890
X17780Y2540
X15240Y13208
X5080Y16510
X15240Y11430
X19050Y10160
X14732Y15240
X8890Y8890
X15240Y6350
X86614Y138430
X13970Y17780
X7620Y19050
X17780Y14605
X5080Y7620
X2540Y12700
X11430Y10541
X19050Y6350
X33528Y13208
X36576Y14732
X42418Y19050
X38608Y8890
X43688Y2540
X41148Y13208
X30988Y16510
X41148Y11430
X44958Y10160
X40640Y15240
X34798Y8890
X41148Y6350
X39878Y17780
X33528Y19050
X43688Y14605
X30988Y7620
X28448Y12700
X37338Y10541
X44958Y6350
X59436Y13208
X62484Y14732
X68326Y19050
X64516Y8890
X69596Y2540
X67056Y13208
X56896Y16510
X67056Y11430
X70866Y10160
X66548Y15240
X60706Y8890
X67056Y6350
X65786Y17780
X59436Y19050
X69596Y14605
X56896Y7620
X54356Y12700
X63246Y10541
X70866Y6350
X85344Y13208
X88392Y14732
X94234Y19050
X90424Y8890
X95504Y2540
X92964Y13208
X82804Y16510
X92964Y11430
X96774Y10160
X92456Y15240
X86614Y8890
X92964Y6350
X91694Y17780
X85344Y19050
X95504Y14605
X82804Y7620
X80264Y12700
X89154Y10541
X96774Y6350
X111252Y13208
X114300Y14732
X120142Y19050
X116332Y8890
X121412Y2540
X118872Y13208
X108712Y16510
X118872Y11430
X122682Y10160
X118364Y15240
X112522Y8890
X118872Y6350
X117602Y17780
X111252Y19050
X121412Y14605
X108712Y7620
X106172Y12700
X115062Y10541
X122682Y6350
X7620Y39116
X10668Y40640
X16510Y44958
X12700Y34798
X17780Y28448
X15240Y39116
X5080Y42418
X15240Y37338
X19050Y36068
X14732Y41148
X8890Y34798
X15240Y32258
X13970Y43688
X7620Y44958
X17780Y40513
X5080Y33528
X2540Y38608
X11430Y36449
X19050Y32258
X33528Y39116
X36576Y40640
X42418Y44958
X38608Y34798
X43688Y28448
X41148Y39116
X30988Y42418
X41148Y37338
X44958Y36068
X40640Y41148
X34798Y34798
X41148Y32258
X39878Y43688
X33528Y44958
X43688Y40513
X30988Y33528
X28448Y38608
X37338Y36449
X44958Y32258
X59436Y39116
X62484Y40640
X64516Y34798
X69596Y28448
X67056Y39116
X56896Y42418
X67056Y37338
X70866Y36068
X66548Y41148
X60706Y34798
X67056Y32258
X65786Y43688
X59436Y44958
X69596Y40513
X56896Y33528
X54356Y38608
X63246Y36449
X70866Y32258
X85344Y39116
X88392Y40640
X94234Y44958
X90424Y34798
X95504Y28448
X92964Y39116
X82804Y42418
X92964Y37338
X96774Y36068
X92456Y41148
X86614Y34798
X92964Y32258
X91694Y43688
X85344Y44958
X95504Y40513
X82804Y33528
X80264Y38608
X89154Y36449
X96774Y32258
X111252Y39116
X114300Y40640
X120142Y44958
X116332Y34798
X121412Y28448
X118872Y39116
X108712Y42418
X118872Y37338
X122682Y36068
X118364Y41148
X112522Y34798
X118872Y32258
X117602Y43688
X111252Y44958
X121412Y40513
X108712Y33528
X106172Y38608
X115062Y36449
X122682Y32258
X7620Y65024
X10668Y66548
X16510Y70866
X12700Y60706
X17780Y54356
X15240Y65024
X5080Y68326
X15240Y63246
X19050Y61976
X14732Y67056
X8890Y60706
X15240Y58166
X13970Y69596
X7620Y70866
X17780Y66421
X5080Y59436
X2540Y64516
X11430Y62357
X19050Y58166
X33528Y65024
X36576Y66548
X42418Y70866
X38608Y60706
X43688Y54356
X41148Y65024
X30988Y68326
X41148Y63246
X44958Y61976
X40640Y67056
X34798Y60706
X41148Y58166
X39878Y69596
X33528Y70866
X43688Y66421
X30988Y59436
X28448Y64516
X37338Y62357
X44958Y58166
X59436Y65024
X62484Y66548
X68326Y70866
X64516Y60706
X69596Y54356
X67056Y65024
X56896Y68326
X67056Y63246
X70866Y61976
X66548Y67056
X60706Y60706
X67056Y58166
X65786Y69596
X59436Y70866
X69596Y66421
X56896Y59436
X54356Y64516
X63246Y62357
X70866Y58166
X85344Y65024
X88392Y66548
X94234Y70866
X90424Y60706
X95504Y54356
X92964Y65024
X82804Y68326
X92964Y63246
X96774Y61976
X92456Y67056
X86614Y60706
X92964Y58166
X91694Y69596
X85344Y70866
X95504Y66421
X82804Y59436
X80264Y64516
X89154Y62357
X96774Y58166
X111252Y65024
X114300Y66548
X120142Y70866
X116332Y60706
X121412Y54356
X118872Y65024
X108712Y68326
X118872Y63246
X122682Y61976
X118364Y67056
X112522Y60706
X118872Y58166
X117602Y69596
X111252Y70866
X121412Y66421
X108712Y59436
X106172Y64516
X115062Y62357
X44958Y113792
X122682Y58166
X7620Y90932
X10668Y92456
X16510Y96774
X12700Y86614
X17780Y80264
X15240Y90932
X5080Y94234
X15240Y89154
X19050Y87884
X14732Y92964
X8890Y86614
X15240Y84074
X13970Y95504
X7620Y96774
X17780Y92329
X5080Y85344
X2540Y90424
X11430Y88265
X19050Y84074
X33528Y90932
X36576Y92456
X42418Y96774
X38608Y86614
X43688Y80264
X41148Y90932
X30988Y94234
X41148Y89154
X44958Y87884
X40640Y92964
X34798Y86614
X41148Y84074
X39878Y95504
X33528Y96774
X43688Y92329
X30988Y85344
X28448Y90424
X37338Y88265
X44958Y84074
X59436Y90932
X62484Y92456
X68326Y96774
X64516Y86614
X69596Y80264
X67056Y90932
X56896Y94234
X67056Y89154
X70866Y87884
X66548Y92964
X60706Y86614
X67056Y84074
X65786Y95504
X59436Y96774
X69596Y92329
X56896Y85344
X54356Y90424
X63246Y88265
X70866Y84074
X85344Y90932
X88392Y92456
X94234Y96774
X90424Y86614
X95504Y80264
X92964Y90932
X82804Y94234
X92964Y89154
X96774Y87884
X92456Y92964
X86614Y86614
X92964Y84074
X91694Y95504
X85344Y96774
X95504Y92329
X82804Y85344
X80264Y90424
X89154Y88265
X96774Y84074
X111252Y90932
X114300Y92456
X120142Y96774
X116332Y86614
X121412Y80264
X118872Y90932
X108712Y94234
X118872Y89154
X122682Y87884
X118364Y92964
X112522Y86614
X118872Y84074
X117602Y95504
X111252Y96774
X121412Y92329
X108712Y85344
X106172Y90424
X115062Y88265
X122682Y84074
X7620Y116840
X10668Y118364
X16510Y122682
X12700Y112522
X17780Y106172
X15240Y116840
X5080Y120142
X15240Y115062
X19050Y113792
X14732Y118872
X8890Y112522
X15240Y109982
X13970Y121412
X7620Y122682
X17780Y118237
X5080Y111252
X2540Y116332
X11430Y114173
X19050Y109982
X33528Y116840
X36576Y118364
X42418Y122682
X38608Y112522
X43688Y106172
X41148Y116840
X30988Y120142
X41148Y115062
X40640Y118872
X34798Y112522
X41148Y109982
X39878Y121412
X33528Y122682
X43688Y118237
X30988Y111252
X28448Y116332
X37338Y114173
X44958Y109982
X59436Y116840
X62484Y118364
M30